# xmcd
#
# Track frame offsets: 
#        150
#        17994
#        34995
#        51525
#        70131
#        78636
#        95241
#        108054
#        125904
#        144015
#        163065
#        183675
#        201996
#        220440
#        241359
#
# Disc length: 3456 seconds
#
# Revision: 2
# Processed by: cddbd v1.5.2PL0 Copyright (c) Steve Scherf et al.
# Submitted via: ExactAudioCopy v0.95b4
#
DISCID=ea0d7e0f
DTITLE=Various Artist - salon indien
DYEAR=2004
DGENRE=Ambient
TTITLE0=Punjab Orchestra - Les Légendes du Maharadja
TTITLE1=Raag - Raag Mahal
TTITLE2=Neru - Krishna Spirit
TTITLE3=Collectif of Goa - Rihiveli
TTITLE4=Rajtana - L'appel du Gange
TTITLE5=Indian Summer - Pahadi
TTITLE6=Raag - Joys for Charkras
TTITLE7=Neru - Délice à Delhi
TTITLE8=Indian Summer - Shirodara
TTITLE9=Neru - In India
TTITLE10=Rajtana - Punjabi Lounge
TTITLE11=Raag - Seven Arms
TTITLE12=Punjab Orchestra - Aromavedi
TTITLE13=Indian Summer - Boombay
TTITLE14=Collectif of Goa - Bengali Sound System
EXTD=YEAR: 2004
EXTT0=
EXTT1=
EXTT2=
EXTT3=
EXTT4=
EXTT5=
EXTT6=
EXTT7=
EXTT8=
EXTT9=
EXTT10=
EXTT11=
EXTT12=
EXTT13=
EXTT14=
PLAYORDER=
